<?xml version="1.0" encoding="UTF-8"?>
<svg xmlns="http://www.w3.org/2000/svg" xmlns:xlink="http://www.w3.org/1999/xlink" width="5001" height="5001" viewBox="0 0 5001 5001">
<path fill-rule="evenodd" fill="rgb(73.242188%, 86.521912%, 29.296875%)" fill-opacity="1" d="M 2494.859375 445.75 C 3624.710938 445.75 4542.011719 1363.039062 4542.011719 2492.890625 C 4542.011719 3622.75 3624.710938 4540.042969 2494.859375 4540.042969 C 1365.011719 4540.042969 447.710938 3622.75 447.710938 2492.890625 C 447.710938 1363.039062 1365.011719 445.75 2494.859375 445.75 "/>
<path fill-rule="nonzero" fill="rgb(100%, 100%, 100%)" fill-opacity="1" d="M 4363.210938 1618.019531 L 4389.941406 1600.441406 L 4425.039062 1653.808594 L 4398.371094 1671.339844 C 4365.601562 1692.941406 4334.25 1716.75 4304.609375 1742.441406 C 4271.460938 1771.179688 4240.070312 1802.039062 4210.789062 1834.660156 C 4177.808594 1871.351562 4146.890625 1909.941406 4118.261719 1950.070312 C 4085.738281 1995.5 4055.671875 2042.351562 4028.039062 2090.789062 C 3996.75 2145.519531 3967.851562 2201.539062 3941.53125 2258.808594 C 3911.828125 2323.460938 3884.558594 2389.308594 3860.011719 2456.191406 C 3832.261719 2531.53125 3807.121094 2607.710938 3784.671875 2684.78125 C 3759.421875 2771.339844 3736.808594 2858.578125 3716.789062 2946.53125 C 3695.089844 3042.660156 3665.078125 3136.75 3627.171875 3227.648438 C 3592.390625 3310.550781 3549.878906 3390.011719 3500.378906 3464.980469 C 3454.058594 3534.96875 3401.070312 3600.238281 3342.191406 3660.171875 C 3285.921875 3717.300781 3224.550781 3769.179688 3158.699219 3814.96875 C 3094.578125 3859.550781 3026.609375 3898.511719 2955.71875 3931.339844 C 2885.890625 3963.839844 2813.570312 3990.628906 2739.398438 4011.652344 C 2665.871094 4032.511719 2591.011719 4048.011719 2515.300781 4058.125 C 2440.339844 4068.085938 2364.789062 4073.113281 2289.089844 4073.113281 C 2189.03125 4073.113281 2089.128906 4064.535156 1990.550781 4047.378906 C 1895.679688 4031.128906 1802.410156 4006.515625 1711.710938 3973.949219 C 1650.300781 3951.609375 1590.589844 3924.871094 1533.140625 3893.851562 C 1472.839844 3861.5 1414.980469 3824.71875 1360.019531 3783.949219 C 1242.601562 3696.859375 1138.988281 3592.511719 1052.589844 3474.570312 C 1006.480469 3411.558594 965.40625 3344.960938 929.777344 3275.328125 C 892.085938 3201.871094 860.371094 3125.519531 835.011719 3046.851562 C 807.800781 2962.78125 787.46875 2876.691406 773.972656 2789.398438 C 759.453125 2694.691406 752.257812 2599.019531 752.421875 2503.351562 C 752.527344 2433 756.066406 2362.898438 763.113281 2292.910156 C 770.582031 2218.058594 781.640625 2143.519531 796.144531 2069.621094 C 811.714844 1990.199219 830.769531 1911.371094 853.214844 1833.609375 C 877.511719 1749.578125 905.203125 1666.460938 936.132812 1584.769531 C 976.570312 1477.410156 1025.539062 1373.488281 1082.558594 1274.011719 C 1139.519531 1174.851562 1204.378906 1080.460938 1276.539062 991.78125 C 1350.339844 901.210938 1430.960938 816.390625 1517.789062 738.191406 C 1608.53125 656.671875 1704.878906 581.601562 1806.050781 513.570312 L 1832.570312 495.679688 L 1868.148438 548.78125 L 1841.679688 566.558594 C 1742.890625 632.898438 1648.96875 706.121094 1560.570312 785.628906 C 1476.230469 861.660156 1397.769531 943.980469 1326.089844 1032.128906 C 1256.101562 1118.109375 1193.148438 1209.691406 1137.878906 1305.828125 C 1082.609375 1402.339844 1035.121094 1503.140625 995.898438 1607.269531 C 965.515625 1687.480469 938.410156 1768.910156 914.636719 1851.28125 C 892.609375 1927.351562 874.03125 2004.328125 858.785156 2081.949219 C 844.648438 2153.890625 833.996094 2226.421875 826.597656 2299.320312 C 819.820312 2367.199219 816.375 2435.21875 816.269531 2503.460938 C 816.105469 2595.960938 823.152344 2688.230469 837.074219 2779.710938 C 850.042969 2863.628906 869.628906 2946.480469 895.726562 3027.261719 C 920.085938 3102.589844 950.46875 3175.871094 986.574219 3246.28125 C 1020.679688 3312.769531 1060 3376.511719 1104.160156 3436.859375 C 1186.699219 3549.628906 1285.738281 3649.421875 1398.039062 3732.691406 C 1450.558594 3771.671875 1505.769531 3806.761719 1563.320312 3837.691406 C 1618.109375 3867.109375 1674.96875 3892.679688 1733.421875 3913.871094 C 1820.5 3945.199219 1910.191406 3968.808594 2001.398438 3984.550781 C 2096.441406 4000.941406 2192.671875 4009.265625 2289.199219 4009.265625 C 2361.941406 4009.265625 2434.671875 4004.386719 2506.78125 3994.859375 C 2579.511719 3985.171875 2651.359375 3970.191406 2721.980469 3950.230469 C 2792.820312 3930.058594 2862.070312 3904.429688 2928.929688 3873.410156 C 2996.429688 3842.128906 3061.078125 3805.011719 3122.210938 3762.511719 C 3184.800781 3718.988281 3243.238281 3669.75 3296.710938 3615.378906 C 3352.609375 3558.46875 3403.070312 3496.261719 3447.121094 3429.71875 C 3494.441406 3358.089844 3535.050781 3282.21875 3568.25 3203.019531 C 3604.828125 3115.46875 3633.738281 3024.988281 3654.488281 2932.5 C 3674.761719 2843.300781 3697.738281 2754.71875 3723.371094 2666.890625 C 3746.28125 2588.441406 3771.808594 2510.820312 3800.078125 2434.109375 C 3825.269531 2365.710938 3853.070312 2298.410156 3883.558594 2232.199219 C 3910.609375 2173.160156 3940.378906 2115.398438 3972.558594 2059.070312 C 4001.398438 2008.78125 4032.589844 1960.078125 4066.269531 1912.910156 C 4096.328125 1870.878906 4128.730469 1830.480469 4163.308594 1791.988281 C 4194.378906 1757.410156 4227.570312 1724.75 4262.730469 1694.199219 C 4294.539062 1666.679688 4328.109375 1641.101562 4363.210938 1618.019531 "/>
<path fill-rule="evenodd" fill="rgb(0%, 0%, 0%)" fill-opacity="1" d="M 344.085938 2500.808594 C 344.085938 2354.960938 358.75 2209.480469 387.972656 2066.539062 C 416.402344 1927.730469 458.539062 1792.089844 513.769531 1661.648438 C 622.289062 1405.519531 779.253906 1172.738281 975.988281 976.109375 C 1172.671875 779.328125 1405.449219 622.359375 1661.519531 513.839844 C 1791.96875 458.660156 1927.609375 416.53125 2066.359375 388.039062 C 2209.25 358.871094 2354.839844 344.210938 2500.691406 344.210938 C 2646.550781 344.210938 2792.128906 358.871094 2935.019531 388.039062 C 3073.769531 416.53125 3209.410156 458.660156 3339.859375 513.839844 C 3595.929688 622.359375 3828.710938 779.328125 4025.390625 976.109375 C 4222.128906 1172.738281 4379.101562 1405.519531 4487.609375 1661.648438 C 4542.839844 1792.089844 4584.980469 1927.730469 4613.410156 2066.429688 C 4642.628906 2209.371094 4657.300781 2354.960938 4657.300781 2500.808594 C 4657.300781 2646.621094 4642.628906 2792.199219 4613.410156 2935.148438 C 4584.980469 3073.839844 4542.839844 3209.480469 4487.609375 3339.929688 C 4379.101562 3596.050781 4222.128906 3828.839844 4025.390625 4025.464844 C 3828.710938 4222.253906 3595.929688 4379.222656 3339.859375 4487.738281 C 3209.410156 4542.910156 3073.769531 4585.046875 2935.019531 4613.535156 C 2792.128906 4642.703125 2646.550781 4657.367188 2500.691406 4657.367188 C 2354.839844 4657.367188 2209.25 4642.703125 2066.359375 4613.535156 C 1927.609375 4585.046875 1791.96875 4542.910156 1661.519531 4487.738281 C 1405.449219 4379.222656 1172.671875 4222.253906 975.988281 4025.464844 C 779.253906 3828.839844 622.289062 3596.050781 513.769531 3339.929688 C 458.539062 3209.480469 416.402344 3073.839844 387.972656 2935.148438 C 358.75 2792.199219 344.085938 2646.621094 344.085938 2500.808594 Z M 526.519531 2500.808594 C 526.519531 2367.199219 539.910156 2233.890625 566.652344 2103.011719 C 592.648438 1976.171875 631.230469 1852.078125 681.742188 1732.800781 C 781.058594 1498.269531 924.855469 1285.128906 1105.050781 1105.179688 C 1285.011719 924.929688 1498.199219 781.179688 1732.679688 681.871094 C 1852.011719 631.320312 1976.050781 592.710938 2102.890625 566.71875 C 2233.820312 540.039062 2367.078125 526.589844 2500.691406 526.589844 C 2634.308594 526.589844 2767.558594 540.039062 2898.5 566.71875 C 3025.339844 592.710938 3149.371094 631.320312 3268.710938 681.871094 C 3503.191406 781.179688 3716.371094 924.929688 3896.328125 1105.179688 C 4076.53125 1285.128906 4220.328125 1498.269531 4319.640625 1732.800781 C 4370.148438 1852.078125 4408.730469 1976.171875 4434.730469 2103.011719 C 4461.46875 2233.890625 4474.859375 2367.199219 4474.859375 2500.808594 C 4474.859375 2634.441406 4461.46875 2767.679688 4434.730469 2898.570312 C 4408.730469 3025.460938 4370.148438 3149.5 4319.640625 3268.78125 C 4220.328125 3503.308594 4076.53125 3716.441406 3896.328125 3896.398438 C 3716.371094 4076.652344 3503.191406 4220.394531 3268.710938 4319.710938 C 3149.371094 4370.261719 3025.339844 4408.859375 2898.5 4434.855469 C 2767.558594 4461.542969 2634.308594 4474.984375 2500.691406 4474.984375 C 2367.078125 4474.984375 2233.820312 4461.542969 2102.890625 4434.855469 C 1976.050781 4408.859375 1852.011719 4370.261719 1732.679688 4319.710938 C 1498.199219 4220.394531 1285.011719 4076.652344 1105.050781 3896.398438 C 924.855469 3716.441406 781.058594 3503.308594 681.742188 3268.78125 C 631.230469 3149.5 592.648438 3025.460938 566.652344 2898.570312 C 539.910156 2767.679688 526.519531 2634.441406 526.519531 2500.808594 "/>
</svg>
